<svg width="46" height="45" viewBox="0 0 46 45" fill="none" xmlns="http://www.w3.org/2000/svg">
<circle cx="23.5" cy="22.5" r="22.5" fill="#F2F4FB"/>
<circle cx="23.5" cy="22.5" r="22.5" fill="#F8B500" fill-opacity="0.2"/>
<g filter="url(#filter0_d_63_687)">
<path d="M15.7109 9.4082C14.7852 10.1934 14.3223 11.1484 14.3223 12.2734C14.3223 13.3867 14.627 14.5059 15.2363 15.6309C15.8574 16.7441 16.5781 17.6934 17.3984 18.4785C18.2188 19.2637 18.8516 19.8906 19.2969 20.3594C19.7539 20.8164 20.2637 21.373 20.8262 22.0293C21.4004 22.6738 21.8516 23.2539 22.1797 23.7695C22.9883 25.0234 23.3926 26.125 23.3926 27.0742C23.3926 28.0117 23.1934 28.8848 22.7949 29.6934C22.4082 30.502 21.8516 31.2402 21.125 31.9082C20.4102 32.5645 19.4902 33.1094 18.3652 33.543C17.252 33.9766 16.0215 34.2227 14.6738 34.2812C15.0488 33.7422 15.2363 33.1797 15.2363 32.5938C15.2363 31.9961 15.1133 31.3926 14.8672 30.7832C14.6211 30.1621 14.2461 29.5 13.7422 28.7969C12.9336 27.6602 12.0254 26.5469 11.0176 25.457C10.0215 24.3672 9.32422 23.5879 8.92578 23.1191C8.53906 22.6504 8.09961 22.0586 7.60742 21.3438C6.64648 19.9609 6.16602 18.5723 6.16602 17.1777C6.16602 15.7832 6.59375 14.4883 7.44922 13.293C8.30469 12.0977 9.45898 11.1543 10.9121 10.4629C12.377 9.77148 13.9766 9.41992 15.7109 9.4082ZM21.5645 20.0254C21.5645 18.8887 21.3594 17.7168 20.9492 16.5098C20.1406 14.1543 18.793 12.2559 16.9062 10.8145C16.9297 10.6035 17.1289 10.3516 17.5039 10.0586C17.8789 9.76562 18.1895 9.61914 18.4355 9.61914C19.291 9.61914 20.2871 9.78906 21.4238 10.1289C22.5723 10.4687 23.4805 10.7969 24.1484 11.1133C24.207 11.4648 24.2363 12.0801 24.2363 12.959C24.2363 13.8262 24.1543 14.916 23.9902 16.2285C23.8262 17.5293 23.627 18.5605 23.3926 19.3223C23.3223 19.498 23.0703 19.6621 22.6367 19.8145C22.2148 19.9551 21.8574 20.0254 21.5645 20.0254ZM13.1445 32.752C13.0039 33.5488 12.7871 34.082 12.4941 34.3516C11.2637 34.3516 9.81055 34.1934 8.13477 33.877C6.45898 33.5605 5.24023 33.1562 4.47852 32.6641C4.4668 32.4062 4.46094 32.0371 4.46094 31.5566C4.46094 29.2715 4.73047 27.1035 5.26953 25.0527C5.31641 24.8652 5.51562 24.6309 5.86719 24.3496C6.21875 24.0566 6.53516 23.9102 6.81641 23.9102C7.08594 25.1992 7.56641 26.4941 8.25781 27.7949C8.96094 29.0957 9.75195 30.1973 10.6309 31.0996C11.5215 31.9902 12.3594 32.541 13.1445 32.752Z" fill="#D22780"/>
<path d="M37.2012 32.8398C37.2012 32.9922 37.0137 33.2266 36.6387 33.543C36.2637 33.8477 35.9414 34 35.6719 34H31.1367C29.8125 31.5977 28.043 28.8613 25.8281 25.791C23.625 22.7207 21.6152 20.1484 19.7988 18.0742C19.9512 16.8203 20.1855 14.5352 20.502 11.2188C20.5371 11.0547 20.7363 10.8262 21.0996 10.5332C21.4746 10.2285 21.7852 10.0762 22.0312 10.0762H26.6191C28.1777 12.8184 29.8418 15.4141 31.6113 17.8633C33.3926 20.3125 35.4668 22.9844 37.834 25.8789C37.5293 28.6914 37.3184 31.0117 37.2012 32.8398ZM36.9023 22.8027C36.3398 19.9082 35.8242 17.6348 35.3555 15.9824C34.8984 14.3184 34.2773 12.7305 33.4922 11.2188C33.4922 11.0664 33.6797 10.8379 34.0547 10.5332C34.4414 10.2285 34.7754 10.0762 35.0566 10.0762H40.6465C39.8613 13.4629 39.1289 17.3125 38.4492 21.625C38.4492 21.7891 38.2617 22.0293 37.8867 22.3457C37.5117 22.6504 37.1836 22.8027 36.9023 22.8027ZM20.748 21.502C21.0527 23.9629 21.4688 26.0254 21.9961 27.6895C22.5234 29.3418 23.2559 31.0586 24.1934 32.8398C24.1934 32.9922 24.0059 33.2266 23.6309 33.543C23.2559 33.8477 22.9277 34 22.6465 34H17.0566C17.8418 30.5898 18.5566 26.8105 19.2012 22.6621C19.2012 22.5098 19.3887 22.2812 19.7637 21.9766C20.1504 21.6602 20.4785 21.502 20.748 21.502Z" fill="#D22780"/>
</g>
<defs>
<filter id="filter0_d_63_687" x="0.460938" y="9.4082" width="44.1855" height="32.9434" filterUnits="userSpaceOnUse" color-interpolation-filters="sRGB">
<feFlood flood-opacity="0" result="BackgroundImageFix"/>
<feColorMatrix in="SourceAlpha" type="matrix" values="0 0 0 0 0 0 0 0 0 0 0 0 0 0 0 0 0 0 127 0" result="hardAlpha"/>
<feOffset dy="4"/>
<feGaussianBlur stdDeviation="2"/>
<feComposite in2="hardAlpha" operator="out"/>
<feColorMatrix type="matrix" values="0 0 0 0 0.972549 0 0 0 0 0.709804 0 0 0 0 0 0 0 0 0.25 0"/>
<feBlend mode="normal" in2="BackgroundImageFix" result="effect1_dropShadow_63_687"/>
<feBlend mode="normal" in="SourceGraphic" in2="effect1_dropShadow_63_687" result="shape"/>
</filter>
</defs>
</svg>
