<?xml version="1.0" standalone="no"?>
<!DOCTYPE svg PUBLIC "-//W3C//DTD SVG 20010904//EN"
 "http://www.w3.org/TR/2001/REC-SVG-20010904/DTD/svg10.dtd">
<svg version="1.0" xmlns="http://www.w3.org/2000/svg"
 width="512.000000pt" height="512.000000pt" viewBox="0 0 512.000000 512.000000"
 preserveAspectRatio="xMidYMid meet">

<g transform="translate(0.000000,512.000000) scale(0.100000,-0.100000)"
fill="#000000" stroke="none">
<path d="M1783 5099 c-82 -26 -165 -101 -205 -184 -15 -33 -28 -72 -28 -87 0
-48 -8 -57 -43 -47 -59 17 -158 10 -219 -15 -113 -46 -183 -127 -214 -246 -19
-74 -15 -120 21 -235 14 -44 25 -80 25 -81 0 0 -39 2 -87 4 -73 3 -98 0 -145
-18 -76 -28 -155 -101 -193 -177 -25 -50 -29 -70 -29 -143 -1 -76 5 -105 59
-280 63 -205 82 -240 130 -240 29 0 75 40 75 65 0 9 -27 106 -60 215 -33 109
-60 215 -60 235 0 107 90 195 201 195 63 0 108 -21 151 -69 29 -31 46 -81 141
-396 114 -378 126 -405 180 -405 31 0 64 25 71 54 4 16 -53 216 -170 602 -190
627 -187 615 -142 696 69 122 259 132 335 17 17 -25 86 -237 198 -606 182
-597 184 -603 242 -603 27 0 73 41 73 65 0 9 -83 290 -184 623 -101 334 -192
633 -201 665 -14 49 -15 66 -5 109 39 162 237 210 347 85 21 -24 41 -66 57
-119 14 -46 104 -342 200 -658 189 -621 188 -618 251 -606 33 7 65 39 65 65 0
9 -72 255 -161 547 -179 588 -179 587 -122 668 54 76 169 109 246 70 72 -36
95 -71 137 -204 96 -309 441 -1452 438 -1454 -2 -1 -66 -21 -143 -45 -221 -68
-322 -127 -447 -260 -62 -65 -87 -103 -132 -193 -71 -146 -89 -222 -90 -368
-1 -235 57 -354 142 -294 36 25 43 55 26 115 -72 274 43 579 279 741 80 55
134 77 337 137 194 58 240 82 269 140 11 21 67 162 124 312 58 151 112 292
121 314 60 143 228 179 332 70 47 -49 68 -116 55 -175 -4 -19 -72 -202 -149
-405 -78 -204 -142 -383 -142 -398 0 -57 73 -88 118 -49 24 20 308 756 323
836 26 144 -63 308 -202 371 -114 51 -234 42 -342 -27 -81 -52 -112 -108 -232
-426 -60 -160 -113 -288 -117 -284 -3 4 -105 336 -227 737 -121 402 -231 751
-243 778 -29 64 -101 135 -168 166 -47 22 -69 26 -150 26 -89 0 -99 -2 -156
-33 -34 -19 -74 -46 -89 -62 l-27 -29 -40 59 c-90 135 -247 189 -405 139z"/>
<path d="M4531 4474 c-24 -30 -27 -63 -8 -86 6 -8 44 -36 84 -62 132 -86 254
-232 303 -364 45 -120 55 -173 54 -302 0 -137 -15 -208 -65 -318 -37 -81 -37
-114 -3 -141 61 -48 105 -16 153 107 53 139 65 203 65 357 0 114 -4 156 -22
225 -50 188 -173 383 -309 493 -147 118 -212 142 -252 91z"/>
<path d="M4260 4150 c-12 -12 -20 -33 -20 -54 0 -36 12 -49 100 -110 86 -59
157 -189 175 -318 8 -59 -9 -155 -42 -232 -24 -57 -24 -62 -9 -93 33 -70 104
-52 148 37 122 251 26 589 -213 749 -68 46 -108 52 -139 21z"/>
<path d="M900 3160 c-11 -11 -20 -33 -20 -50 0 -51 317 -1076 360 -1166 54
-111 140 -224 243 -319 82 -74 88 -83 112 -155 14 -41 25 -82 25 -90 0 -8 -18
-25 -39 -37 -43 -25 -81 -90 -80 -139 0 -16 19 -92 43 -168 l43 -140 -27 -23
c-38 -32 -60 -83 -60 -140 0 -32 33 -156 99 -373 104 -340 113 -360 168 -360
28 0 73 41 73 67 0 10 -45 164 -99 343 -62 205 -96 331 -91 340 5 9 110 46
262 92 139 43 617 188 1062 323 775 236 810 245 826 228 9 -10 106 -313 215
-673 108 -360 204 -667 211 -681 22 -44 66 -51 108 -18 17 13 26 30 26 48 0
38 -393 1335 -421 1389 -25 47 -80 86 -140 97 l-35 6 -38 127 c-21 70 -44 142
-53 160 -23 48 -66 74 -136 81 l-59 6 -19 60 c-30 96 -27 111 41 190 81 94
170 225 225 329 43 82 44 88 32 119 -15 36 -51 53 -90 43 -20 -5 -38 -28 -78
-99 -68 -121 -116 -190 -195 -284 -110 -130 -124 -186 -82 -328 12 -41 20 -77
17 -79 -2 -2 -348 -109 -769 -237 -421 -127 -770 -234 -777 -236 -7 -3 -23 31
-42 94 -35 114 -52 140 -143 217 -90 76 -170 180 -223 290 -29 62 -90 246
-189 576 -168 557 -171 567 -196 580 -30 16 -68 12 -90 -10z m2681 -1509 c21
-69 36 -127 33 -130 -7 -7 -1328 -410 -1332 -406 -2 2 4 20 12 40 21 48 20
114 0 143 -9 13 -34 36 -55 52 -22 16 -36 30 -32 33 4 3 278 86 608 186 330
100 618 188 640 196 81 28 84 25 126 -114z m-1494 -378 c37 -26 69 -47 70 -48
2 -1 -12 -39 -31 -86 l-34 -84 -169 -52 c-92 -29 -175 -52 -183 -50 -18 3 -94
247 -81 260 10 10 318 105 343 106 9 1 48 -20 85 -46z"/>
<path d="M127 3142 c-26 -29 -74 -143 -99 -234 -32 -117 -32 -324 0 -451 26
-105 74 -213 137 -306 85 -129 304 -311 373 -311 28 0 72 42 72 69 0 38 -13
52 -95 106 -143 94 -254 231 -311 381 -72 193 -72 379 3 568 47 121 51 148 24
175 -26 26 -82 28 -104 3z"/>
<path d="M549 3030 c-23 -14 -68 -119 -85 -202 -39 -184 25 -394 162 -533 61
-62 154 -125 185 -125 32 0 69 40 69 74 0 38 -11 53 -65 88 -84 54 -147 134
-185 233 -32 84 -33 215 -1 300 13 33 25 79 28 101 4 35 1 44 -18 58 -26 18
-65 20 -90 6z"/>
</g>
</svg>
