<?xml version="1.0" standalone="no"?>
<!DOCTYPE svg PUBLIC "-//W3C//DTD SVG 20010904//EN"
 "http://www.w3.org/TR/2001/REC-SVG-20010904/DTD/svg10.dtd">
<svg version="1.0" xmlns="http://www.w3.org/2000/svg"
 width="500.000000pt" height="500.000000pt" viewBox="0 0 500.000000 500.000000"
 preserveAspectRatio="xMidYMid meet">

<g transform="translate(0.000000,500.000000) scale(0.100000,-0.100000)"
fill="#000000" stroke="none">
<path d="M2315 4569 c-297 -28 -622 -132 -868 -279 -551 -328 -919 -882 -1008
-1520 -19 -138 -17 -430 5 -565 76 -476 286 -882 623 -1206 799 -767 2059
-769 2861 -5 294 280 488 613 587 1005 152 607 17 1258 -369 1766 -419 552
-1141 869 -1831 804z m-492 -1001 c30 -15 386 -360 415 -400 14 -21 22 -47 22
-75 0 -46 -21 -76 -158 -230 l-64 -73 27 -52 c39 -76 111 -183 174 -258 135
-163 250 -261 438 -375 l112 -68 34 29 c19 16 70 60 113 98 98 85 129 101 180
91 33 -6 64 -31 197 -163 231 -229 259 -263 265 -322 5 -59 -19 -107 -99 -194
-89 -97 -185 -139 -366 -156 -182 -17 -357 24 -547 130 -198 110 -370 252
-611 505 -227 237 -343 391 -432 570 -84 169 -108 280 -100 459 10 231 79 362
245 467 50 31 115 39 155 17z"/>
</g>
</svg>
