<?xml version="1.0" standalone="no"?>
<!DOCTYPE svg PUBLIC "-//W3C//DTD SVG 20010904//EN"
 "http://www.w3.org/TR/2001/REC-SVG-20010904/DTD/svg10.dtd">
<svg version="1.0" xmlns="http://www.w3.org/2000/svg"
 width="500.000000pt" height="500.000000pt" viewBox="0 0 500.000000 500.000000"
 preserveAspectRatio="xMidYMid meet">

<g transform="translate(0.000000,500.000000) scale(0.100000,-0.100000)"
fill="#000000" stroke="none">
<path d="M2383 4472 c-87 -31 -16 25 -1023 -812 -353 -294 -729 -607 -835
-695 -517 -429 -525 -437 -525 -485 0 -19 8 -47 18 -61 42 -63 206 -247 228
-258 58 -26 98 -6 259 132 55 47 165 139 245 204 80 65 192 158 250 208 171
147 1494 1245 1500 1245 5 0 632 -520 766 -635 39 -33 114 -96 168 -140 54
-44 108 -88 120 -99 11 -10 181 -152 376 -314 195 -163 420 -350 500 -417 219
-184 235 -195 280 -195 48 0 59 10 190 165 97 116 100 121 98 165 -3 42 -7 48
-98 127 -52 46 -198 167 -324 271 -126 103 -244 200 -263 216 l-33 28 0 645
c1 705 3 681 -56 703 -14 6 -164 10 -340 10 -349 0 -362 -2 -383 -61 -7 -21
-11 -138 -11 -330 0 -165 -2 -299 -5 -299 -3 0 -152 123 -332 273 -414 346
-437 364 -503 395 -74 35 -192 41 -267 14z"/>
<path d="M2370 3581 c-58 -49 -148 -125 -201 -168 -120 -96 -1041 -855 -1277
-1050 l-172 -143 2 -795 c3 -784 3 -794 24 -821 11 -15 37 -42 58 -58 l38 -31
631 0 632 0 0 587 c0 322 3 589 6 592 11 11 772 7 779 -4 4 -6 7 -270 8 -588
1 -317 1 -580 2 -585 0 -4 281 -6 624 -5 l624 3 43 30 c23 17 52 43 63 58 21
28 21 34 24 822 l2 793 -82 70 c-46 39 -225 187 -398 329 -903 741 -1093 898
-1180 972 -65 56 -102 81 -120 81 -18 0 -58 -27 -130 -89z"/>
</g>
</svg>
