<svg width="29" height="63" viewBox="0 0 29 63" fill="none" xmlns="http://www.w3.org/2000/svg">
<path d="M13.7109 8.4082C12.7852 9.19336 12.3223 10.1484 12.3223 11.2734C12.3223 12.3867 12.627 13.5059 13.2363 14.6309C13.8574 15.7441 14.5781 16.6934 15.3984 17.4785C16.2188 18.2637 16.8516 18.8906 17.2969 19.3594C17.7539 19.8164 18.2637 20.373 18.8262 21.0293C19.4004 21.6738 19.8516 22.2539 20.1797 22.7695C20.9883 24.0234 21.3926 25.125 21.3926 26.0742C21.3926 27.0117 21.1934 27.8848 20.7949 28.6934C20.4082 29.502 19.8516 30.2402 19.125 30.9082C18.4102 31.5645 17.4902 32.1094 16.3652 32.543C15.252 32.9766 14.0215 33.2227 12.6738 33.2812C13.0488 32.7422 13.2363 32.1797 13.2363 31.5938C13.2363 30.9961 13.1133 30.3926 12.8672 29.7832C12.6211 29.1621 12.2461 28.5 11.7422 27.7969C10.9336 26.6602 10.0254 25.5469 9.01758 24.457C8.02148 23.3672 7.32422 22.5879 6.92578 22.1191C6.53906 21.6504 6.09961 21.0586 5.60742 20.3438C4.64648 18.9609 4.16602 17.5723 4.16602 16.1777C4.16602 14.7832 4.59375 13.4883 5.44922 12.293C6.30469 11.0977 7.45898 10.1543 8.91211 9.46289C10.377 8.77148 11.9766 8.41992 13.7109 8.4082ZM19.5645 19.0254C19.5645 17.8887 19.3594 16.7168 18.9492 15.5098C18.1406 13.1543 16.793 11.2559 14.9062 9.81445C14.9297 9.60352 15.1289 9.35156 15.5039 9.05859C15.8789 8.76562 16.1895 8.61914 16.4355 8.61914C17.291 8.61914 18.2871 8.78906 19.4238 9.12891C20.5723 9.46875 21.4805 9.79688 22.1484 10.1133C22.207 10.4648 22.2363 11.0801 22.2363 11.959C22.2363 12.8262 22.1543 13.916 21.9902 15.2285C21.8262 16.5293 21.627 17.5605 21.3926 18.3223C21.3223 18.498 21.0703 18.6621 20.6367 18.8145C20.2148 18.9551 19.8574 19.0254 19.5645 19.0254ZM11.1445 31.752C11.0039 32.5488 10.7871 33.082 10.4941 33.3516C9.26367 33.3516 7.81055 33.1934 6.13477 32.877C4.45898 32.5605 3.24023 32.1562 2.47852 31.6641C2.4668 31.4062 2.46094 31.0371 2.46094 30.5566C2.46094 28.2715 2.73047 26.1035 3.26953 24.0527C3.31641 23.8652 3.51562 23.6309 3.86719 23.3496C4.21875 23.0566 4.53516 22.9102 4.81641 22.9102C5.08594 24.1992 5.56641 25.4941 6.25781 26.7949C6.96094 28.0957 7.75195 29.1973 8.63086 30.0996C9.52148 30.9902 10.3594 31.541 11.1445 31.752Z" fill="#F8B500"/>
<path d="M24.2012 51.8398C24.2012 51.9922 24.0137 52.2266 23.6387 52.543C23.2637 52.8477 22.9414 53 22.6719 53H18.1367C16.8125 50.5977 15.043 47.8613 12.8281 44.791C10.625 41.7207 8.61523 39.1484 6.79883 37.0742C6.95117 35.8203 7.18555 33.5352 7.50195 30.2188C7.53711 30.0547 7.73633 29.8262 8.09961 29.5332C8.47461 29.2285 8.78516 29.0762 9.03125 29.0762H13.6191C15.1777 31.8184 16.8418 34.4141 18.6113 36.8633C20.3926 39.3125 22.4668 41.9844 24.834 44.8789C24.5293 47.6914 24.3184 50.0117 24.2012 51.8398ZM23.9023 41.8027C23.3398 38.9082 22.8242 36.6348 22.3555 34.9824C21.8984 33.3184 21.2773 31.7305 20.4922 30.2188C20.4922 30.0664 20.6797 29.8379 21.0547 29.5332C21.4414 29.2285 21.7754 29.0762 22.0566 29.0762H27.6465C26.8613 32.4629 26.1289 36.3125 25.4492 40.625C25.4492 40.7891 25.2617 41.0293 24.8867 41.3457C24.5117 41.6504 24.1836 41.8027 23.9023 41.8027ZM7.74805 40.502C8.05273 42.9629 8.46875 45.0254 8.99609 46.6895C9.52344 48.3418 10.2559 50.0586 11.1934 51.8398C11.1934 51.9922 11.0059 52.2266 10.6309 52.543C10.2559 52.8477 9.92773 53 9.64648 53H4.05664C4.8418 49.5898 5.55664 45.8105 6.20117 41.6621C6.20117 41.5098 6.38867 41.2812 6.76367 40.9766C7.15039 40.6602 7.47852 40.502 7.74805 40.502Z" fill="#F8B500"/>
</svg>
