<?xml version="1.0" standalone="no"?>
<!DOCTYPE svg PUBLIC "-//W3C//DTD SVG 20010904//EN"
 "http://www.w3.org/TR/2001/REC-SVG-20010904/DTD/svg10.dtd">
<svg version="1.0" xmlns="http://www.w3.org/2000/svg"
 width="500.000000pt" height="500.000000pt" viewBox="0 0 500.000000 500.000000"
 preserveAspectRatio="xMidYMid meet">

<g transform="translate(0.000000,500.000000) scale(0.100000,-0.100000)"
fill="#000000" stroke="none">
<path d="M2315 4994 c-115 -10 -329 -46 -450 -78 -535 -139 -1028 -469 -1360
-911 -444 -590 -602 -1320 -445 -2050 32 -149 111 -378 177 -517 362 -755
1036 -1263 1863 -1405 139 -24 180 -27 395 -27 199 0 263 4 375 22 746 122
1382 545 1764 1176 185 305 291 605 347 986 19 126 16 487 -5 635 -62 432
-227 839 -476 1170 -396 527 -973 873 -1625 975 -127 20 -443 33 -560 24z
m505 -215 c249 -34 456 -97 685 -209 652 -317 1112 -914 1254 -1630 63 -316
53 -703 -28 -1016 -101 -393 -332 -790 -622 -1069 -451 -434 -998 -656 -1614
-655 -325 0 -613 59 -910 185 -587 251 -1059 762 -1264 1370 -90 269 -122 464
-122 759 0 370 73 680 237 1011 148 297 362 561 624 772 496 399 1122 570
1760 482z"/>
<path d="M2240 4659 c-294 -33 -623 -149 -883 -310 -555 -344 -920 -910 -1013
-1569 -19 -136 -19 -424 0 -560 69 -491 277 -911 621 -1255 351 -352 804 -571
1287 -624 125 -14 371 -14 496 0 581 64 1128 376 1484 847 229 304 373 654
424 1032 18 136 18 436 -1 565 -69 487 -278 908 -620 1250 -351 352 -804 571
-1287 624 -112 13 -398 12 -508 0z m-50 -125 c68 -20 177 -74 253 -126 82 -56
156 -88 202 -88 108 0 159 44 177 154 11 65 11 66 43 66 l33 0 7 -75 c13 -138
-16 -305 -71 -422 -85 -180 -267 -279 -476 -259 -153 14 -265 90 -417 283
-111 139 -176 209 -213 229 -39 20 -101 17 -142 -7 -144 -85 -47 -248 229
-386 75 -38 234 -97 438 -163 256 -82 407 -162 530 -278 222 -210 238 -499 44
-757 -25 -33 -64 -75 -87 -93 l-41 -34 53 -56 c79 -83 112 -136 350 -562 249
-445 283 -509 372 -685 47 -93 65 -120 61 -95 -30 219 -39 278 -57 355 -55
238 -126 381 -287 578 -171 210 -208 298 -218 525 l-6 132 334 -2 334 -3 3
-1037 2 -1038 -39 0 -40 0 -6 48 c-15 103 -70 183 -156 227 -45 23 -178 68
-294 100 -33 9 -106 39 -163 66 -82 41 -116 65 -175 123 -66 66 -89 101 -276
431 -352 621 -406 714 -409 711 -1 -2 5 -70 13 -152 36 -346 111 -592 235
-774 21 -30 79 -104 129 -165 50 -60 104 -136 121 -167 44 -82 70 -195 77
-331 l6 -117 -337 0 -336 0 0 904 0 904 -132 75 c-156 89 -220 112 -281 103
-90 -14 -135 -65 -146 -166 -6 -51 -8 -55 -33 -58 -43 -5 -51 29 -45 188 6
147 24 225 79 334 84 167 282 265 481 239 153 -21 254 -92 455 -320 71 -82
148 -161 170 -176 73 -51 157 -45 207 14 69 83 -8 206 -205 323 -114 67 -276
134 -513 210 -437 141 -614 280 -666 524 -16 75 -14 218 4 286 53 203 240 391
448 451 132 38 268 41 377 9z"/>
</g>
</svg>
