<?xml version="1.0" standalone="no"?>
<!DOCTYPE svg PUBLIC "-//W3C//DTD SVG 20010904//EN"
 "http://www.w3.org/TR/2001/REC-SVG-20010904/DTD/svg10.dtd">
<svg version="1.0" xmlns="http://www.w3.org/2000/svg"
 width="500.000000pt" height="500.000000pt" viewBox="0 0 500.000000 500.000000"
 preserveAspectRatio="xMidYMid meet">

<g transform="translate(0.000000,500.000000) scale(0.100000,-0.100000)"
fill="#000000" stroke="none">
<path d="M2315 4834 c-325 -34 -601 -110 -851 -235 -614 -305 -1062 -857
-1230 -1513 -46 -177 -65 -321 -71 -516 -14 -495 115 -951 385 -1360 158 -239
318 -410 537 -575 317 -238 633 -374 1042 -446 173 -31 548 -34 718 -6 135 23
339 75 460 117 287 100 620 313 850 545 297 297 522 701 618 1110 47 199 61
323 61 545 0 378 -72 696 -233 1025 -232 474 -600 842 -1076 1076 -223 109
-435 176 -685 214 -101 15 -441 28 -525 19z m540 -333 c234 -44 397 -100 584
-198 502 -262 884 -737 1022 -1268 56 -217 63 -281 63 -535 0 -182 -4 -256
-17 -330 -39 -211 -108 -424 -188 -583 -26 -51 -123 -213 -134 -226 -2 -2 -44
34 -94 79 -185 170 -354 284 -573 389 -656 314 -1385 315 -2033 2 -227 -109
-403 -229 -583 -396 -46 -43 -84 -76 -86 -74 -2 2 -26 40 -54 84 -281 455
-365 1032 -228 1568 114 444 378 838 744 1110 312 232 583 339 1017 401 17 2
125 3 240 1 162 -2 235 -8 320 -24z"/>
<path d="M2383 4210 c-157 -22 -319 -90 -450 -188 -330 -250 -453 -686 -304
-1082 57 -153 214 -345 359 -440 237 -156 548 -194 819 -101 141 48 225 103
348 226 84 84 122 130 158 195 341 610 -74 1358 -773 1394 -52 2 -123 1 -157
-4z"/>
</g>
</svg>
