<?xml version="1.0" standalone="no"?>
<!DOCTYPE svg PUBLIC "-//W3C//DTD SVG 20010904//EN"
 "http://www.w3.org/TR/2001/REC-SVG-20010904/DTD/svg10.dtd">
<svg version="1.0" xmlns="http://www.w3.org/2000/svg"
 width="500.000000pt" height="500.000000pt" viewBox="0 0 500.000000 500.000000"
 preserveAspectRatio="xMidYMid meet">

<g transform="translate(0.000000,500.000000) scale(0.100000,-0.100000)"
fill="#000000" stroke="none">
<path d="M251 4570 c-96 -35 -172 -106 -219 -207 l-27 -58 -3 -633 -3 -632 25
-25 c30 -30 65 -32 97 -6 l24 19 3 291 3 291 2352 -2 2352 -3 0 -1235 c0
-1007 -2 -1244 -14 -1281 -17 -62 -60 -112 -118 -141 -47 -23 -55 -23 -415
-28 -352 -5 -368 -6 -382 -25 -21 -28 -20 -58 5 -89 l20 -26 364 0 c337 0 368
1 429 20 88 28 180 111 222 202 l29 63 0 1620 0 1620 -31 65 c-38 80 -105 149
-182 187 -56 27 -62 28 -249 31 -183 3 -192 3 -212 -17 -26 -26 -28 -82 -4
-103 14 -13 52 -17 189 -20 158 -3 174 -5 219 -28 64 -33 104 -85 121 -157 14
-59 20 -434 8 -480 l-6 -23 -2350 0 -2349 0 3 268 3 269 28 41 c35 54 89 89
156 102 35 6 688 10 1892 10 l1838 0 15 22 c22 31 20 74 -4 98 -20 20 -33 20
-1897 20 -1832 -1 -1879 -1 -1932 -20z"/>
<path d="M590 4234 c-74 -27 -105 -73 -97 -147 4 -42 10 -56 41 -84 30 -27 44
-33 82 -33 54 0 94 21 119 63 34 57 14 147 -39 182 -26 17 -83 27 -106 19z"/>
<path d="M984 4226 c-68 -31 -98 -111 -65 -179 25 -52 65 -77 124 -77 126 0
175 172 70 245 -31 22 -94 27 -129 11z"/>
<path d="M1404 4226 c-131 -59 -93 -256 50 -256 104 0 169 110 116 197 -36 60
-107 86 -166 59z"/>
<path d="M629 2836 c-13 -6 -30 -23 -37 -38 -11 -24 -1 -60 113 -395 85 -248
133 -374 147 -385 28 -25 70 -23 95 5 11 12 60 136 108 275 58 165 92 248 97
238 4 -7 46 -126 93 -262 49 -145 91 -254 102 -261 44 -33 102 -3 123 64 7 21
64 185 127 366 81 230 113 334 109 352 -9 36 -60 60 -97 45 -32 -14 -42 -38
-149 -347 -34 -101 -66 -183 -69 -183 -3 0 -44 114 -91 252 -47 139 -93 260
-102 270 -23 23 -70 23 -96 1 -12 -11 -54 -116 -108 -270 -49 -139 -92 -253
-95 -253 -3 0 -39 96 -79 213 -98 286 -106 304 -140 315 -19 7 -35 6 -51 -2z"/>
<path d="M1993 2842 c-26 -4 -53 -38 -53 -66 0 -30 238 -718 259 -746 23 -32
73 -38 98 -13 10 10 58 131 107 268 49 138 92 253 95 257 4 4 47 -110 95 -253
91 -267 103 -289 152 -289 48 0 61 28 189 393 69 197 125 371 125 386 0 67
-98 90 -130 30 -7 -12 -45 -116 -85 -233 -88 -253 -94 -270 -100 -264 -3 2
-43 117 -90 254 -57 165 -93 255 -106 267 -28 22 -72 22 -93 -2 -13 -15 -111
-276 -192 -510 -3 -9 -8 -11 -13 -5 -5 5 -46 117 -91 249 -45 132 -89 247 -97
257 -17 19 -39 25 -70 20z"/>
<path d="M3319 2838 c-15 -5 -32 -22 -39 -38 -11 -27 -2 -61 114 -397 130
-377 142 -403 191 -403 47 0 63 30 157 293 53 150 94 253 99 245 3 -7 44 -123
90 -258 46 -134 91 -252 101 -262 25 -25 70 -23 95 5 11 12 44 90 73 172 204
585 201 577 190 606 -16 37 -58 54 -93 38 -31 -14 -41 -38 -138 -316 -41 -117
-77 -213 -80 -213 -4 0 -44 111 -89 248 -46 136 -92 257 -103 270 -25 27 -67
29 -95 5 -12 -11 -45 -88 -82 -193 -34 -96 -70 -197 -80 -225 -11 -27 -22 -62
-26 -78 -3 -15 -9 -29 -13 -32 -4 -2 -42 98 -85 223 -42 125 -84 244 -92 264
-19 42 -55 60 -95 46z"/>
<path d="M43 2800 c-12 -5 -27 -18 -33 -29 -7 -15 -10 -268 -8 -863 l3 -843
32 -65 c45 -93 116 -162 204 -197 40 -16 106 -18 764 -23 l720 -5 60 -158 c68
-179 82 -197 153 -197 45 0 47 1 184 137 l138 137 128 -125 c146 -145 164
-159 210 -159 50 0 78 19 179 122 106 109 119 140 85 208 l-19 40 408 0 c396
0 410 1 429 20 25 25 26 81 2 103 -16 14 -72 16 -502 18 l-484 2 -48 45 c-26
24 -48 50 -48 55 0 6 61 72 135 147 130 131 135 138 135 178 0 77 -17 87 -375
220 -1034 385 -1005 375 -1048 369 -30 -4 -50 -15 -69 -37 -52 -57 -57 -41
225 -797 l64 -171 -30 -6 c-56 -11 -1253 -7 -1307 5 -65 14 -127 61 -156 119
l-23 45 -1 827 0 827 -22 25 c-27 29 -55 38 -85 26z m1942 -1198 c176 -66 403
-150 505 -187 102 -37 189 -72 195 -77 6 -5 -44 -62 -128 -146 -182 -182 -183
-159 13 -357 l150 -151 -60 -59 -60 -59 -153 152 c-128 127 -158 152 -183 152
-24 0 -52 -23 -164 -135 -74 -74 -139 -135 -145 -135 -7 0 -324 835 -443 1168
-3 8 24 2 74 -17 44 -16 223 -83 399 -149z"/>
</g>
</svg>
